<svg t="1782818827910" class="icon" viewBox="0 0 1024 1024" version="1.1" xmlns="http://www.w3.org/2000/svg" p-id="5899" width="200" height="200"><path d="M380.586667 4.821333l12.834133 0.213334c2.619733 1.28 4.2752 3.140267 5.316267 5.870933 6.357333 16.6912 7.748267 41.856 15.453866 59.2896 1.664 12.765867-11.0336 18.8672-18.2528 6.946133-4.343467-7.168-17.732267-55.048533-17.877333-63.061333-0.034133-2.1248 3.575467-5.6576 2.525867-9.250133z" fill="#553329" p-id="5900"></path><path d="M319.0272 38.4c7.6032-2.133333 8.661333 1.681067 12.4928 6.144 5.077333 5.922133 29.0816 36.736 29.934933 41.019733 2.5856 13.038933-11.9808 17.211733-20.061866 8.8064-3.797333-8.7808-43.8784-49.928533-22.365867-55.970133z" fill="#4A2B23" p-id="5901"></path><path d="M460.945067 4.949333c21.947733-0.6912 11.008 23.1936 9.250133 35.370667-1.245867 8.610133 0.913067 36.5824-16.8448 31.6416-11.7504-3.268267-2.722133-25.122133-1.9456-31.7696 1.4848-12.5952-3.080533-25.847467 9.540267-35.234133z" fill="#523127" p-id="5902"></path><path d="M268.637867 83.165867l12.450133-3.2768c9.668267 6.741333 47.479467 24.456533 43.52 38.7072-4.411733 15.889067-33.757867-5.7344-40.874667-11.3408-7.389867-5.819733-17.186133-13.687467-15.086933-24.0896z" fill="#523027" p-id="5903"></path><path d="M516.957867 19.797333c4.411733-1.339733 13.354667 7.893333 12.5696 12.475734-9.045333 9.284267-13.4656 36.3008-20.189867 43.451733-8.6016 9.147733-21.410133-2.065067-20.2496-8.832 0.964267-5.632 22.946133-45.602133 27.869867-47.095467z" fill="#502F25" p-id="5904"></path><path d="M320.878933 1019.690667c-0.6656 0.0768-3.6096 6.3232-12.962133 3.6352-12.6208-3.626667 0.238933-47.598933-9.258667-57.9072-113.245867-70.0672-243.345067-167.569067-279.099733-302.958934C1.425067 593.8176 6.8608 501.538133 54.254933 445.252267c12.4416-14.779733 27.997867-23.68 42.581334-35.950934-14.711467-61.3632-27.639467-126.523733-22.3744-190.1056 0.913067-11.025067 5.8112-31.803733 10.555733-41.685333 9.301333-19.387733 29.858133-32.349867 51.242667-34.542933 18.4576-1.8944 54.8352 6.912 73.642666 11.997866 29.764267 8.046933 57.975467 21.947733 86.724267 32.7936 32.896-15.598933 66.432-30.498133 101.649067-40.251733 27.554133-7.6288 64.298667-15.9488 92.450133-19.4816 10.5728-1.3312 22.408533 1.544533 32.8704-0.708267 13.115733-2.824533 15.982933-16.170667 23.185067-25.326933C568.567467 74.282667 623.829333 5.888 658.56 1.083733c23.296-3.217067 38.1952 0.443733 56.029867 14.856534 36.488533 29.482667 70.229333 104.814933 85.7856 149.282133 10.965333 31.3344 16.008533 79.598933 28.509866 105.813333 1.5872 3.336533 10.180267 16.187733 12.868267 16.981334 81.877333-3.618133 138.897067 78.958933 160.1792 149.512533 39.876267 132.181333-24.661333 248.9088-106.368 349.038933l-51.933867 56.32c-1.4336 14.301867 30.8224 78.1824 21.8624 87.108267-8.635733 5.725867-14.574933 0.221867-18.500266 0.1536l-29.3632-87.108267c1.322667-8.541867 46.071467-52.599467 55.552-63.931733 96.443733-115.2768 169.403733-254.916267 78.2848-397.44-18.619733-29.124267-38.997333-56.465067-74.487467-69.162667-43.741867-15.6416-85.410133 7.466667-57.8816 54.144 16.913067 28.672 57.685333 44.8 80.128 67.2512 8.695467 8.695467 16.631467 23.313067 24.439467 33.390934 39.842133 146.679467-78.148267 270.045867-199.808 332.2624-91.3664 46.728533-211.4048 71.517867-313.4208 67.157333-58.350933-2.491733-126.353067-18.8928-176.648534-49.092267-82.525867-49.553067-121.156267-152.593067-121.847466-245.674666 7.7824-31.2064 42.410667-64.5632 47.786666-95.863467 9.3184-54.272-34.875733-62.967467-72.1152-34.798933-26.973867 20.411733-43.101867 57.4464-50.295466 89.6256-11.0592 49.4592-8.200533 94.8992 8.2688 142.848 31.8464 92.706133 111.9488 168.439467 189.653333 224.512 26.845867 19.370667 55.953067 36.334933 83.8144 54.2464 9.335467 10.692267 7.168 52.932267 1.8432 67.182933zM156.706133 687.616c17.877333 44.322133 35.234133 72.721067 74.624 100.744533 150.152533 106.8288 423.867733 48.750933 561.621334-59.613866 33.262933-26.1632 81.9712-75.886933 97.1008-115.601067 2.269867-5.9648 0.682667-12.305067 1.6896-15.069867 14.481067-39.748267 21.546667-50.363733 14.993066-95.2064-2.884267-19.712 1.28-23.662933-14.993066-39.1168 0.648533-6.792533-4.7616-10.9824-9.2672-14.993066-28.586667-25.4208-70.766933-44.3136-86.971734-80.930134-8.772267-19.822933-6.869333-48.4352 8.593067-64.477866 4.027733-4.181333 14.916267-6.203733 12.9024-12.910934-0.674133-2.235733-7.150933-7.5264-9.352533-13.098666-16.913067-42.845867-22.024533-94.344533-42.026667-140.8-13.175467-30.600533-54.638933-116.744533-92.151467-116.804267-6.391467 2.116267-13.397333 3.7888-19.464533 6.673067-9.984 4.744533-31.5136 22.562133-40.302933 30.592-7.7568 7.082667-24.6784 26.683733-31.7184 35.438933-7.381333 9.181867-33.570133 52.0704-39.560534 53.717333-4.676267 1.262933-9.847467-0.2816-14.378666 0.546134-14.250667 2.594133-24.738133 1.902933-37.3248 3.720533-67.464533 9.736533-134.493867 31.616-194.6624 62.933333-29.6448-12.279467-58.837333-27.144533-89.890134-35.985066-18.363733-5.230933-55.406933-14.472533-72.9856-11.357867-23.927467 4.2496-34.372267 31.368533-36.334933 53.205333-5.376 59.904 6.314667 123.434667 20.5056 181.290667l4.215467 3.242667c21.0432-2.773333 42.888533 11.042133 53.2736 28.817066 11.588267 19.831467 6.3232 48.068267-1.297067 68.565334-14.301867 38.4768-42.888533 50.9184-39.159467 98.747733 2.321067 29.713067 11.400533 60.689067 22.314667 87.7568z" fill="#4D2B21" p-id="5905"></path><path d="M723.848533 799.556267c11.050667-0.273067 16.9728 17.664 20.5824 26.0608 14.045867 32.699733 23.876267 70.5024 28.714667 105.6l10.410667 17.5872c-125.0048 31.172267-255.470933 49.885867-384.315734 63.428266-0.9216-21.2736-5.000533-39.7568-3.652266-61.4912 0.2304-3.771733 3.2512-7.466667 3.575466-11.349333 2.065067-24.362667 1.152-49.595733 11.272534-72.6784 102.016 4.352 222.045867-20.4288 313.4208-67.157333z" fill="#F9EFDC" p-id="5906"></path><path d="M111.931733 571.9552c0.6912 93.090133 39.313067 196.1216 121.847467 245.674667 50.295467 30.199467 118.2976 46.600533 176.648533 49.092266-10.112 23.082667-9.207467 48.315733-11.272533 72.6784-0.3328 3.874133-3.345067 7.569067-3.575467 11.349334-1.348267 21.7344 2.730667 40.2176 3.652267 61.4912-25.4976 2.679467-52.608 4.3776-78.353067 7.458133 5.3248-14.250667 7.492267-56.490667-1.8432-67.182933-27.861333-17.902933-56.96-34.8672-83.8144-54.2464-77.704533-56.072533-157.806933-131.797333-189.653333-224.512-16.469333-47.940267-19.328-93.3888-8.2688-142.848 9.309867 8.610133 17.28 19.029333 28.4928 25.608533 13.073067 7.671467 31.018667 13.354667 46.1312 15.4368zM846.976 930.141867c-3.3792-0.059733-52.608 15.957333-63.428267 18.653866l-10.410666-17.5872c-4.8384-35.0976-14.660267-72.900267-28.714667-105.6-3.6096-8.3968-9.531733-26.333867-20.5824-26.0608 121.659733-62.225067 239.650133-185.591467 199.808-332.2624-7.808-10.077867-15.752533-24.695467-24.439467-33.390933 22.8608-6.4 42.820267-31.2576 52.232534-52.232533 91.118933 142.523733 18.158933 282.1632-78.2848 397.44-9.480533 11.332267-54.229333 55.389867-55.552 63.931733l29.3632 87.108267z" fill="#F8C37E" p-id="5907"></path><path d="M891.7504 463.744c-15.325867-14.549333-30.609067-23.790933-52.232533-26.120533l-2.193067-3.328a63.015253 63.015253 0 0 0-18.005333 0l-2.193067 3.328c-8.849067 0.708267-11.434667 3.003733-14.9248 3.729066-6.8352 1.425067-10.129067 0.401067-18.653867 3.729067-10.052267-17.143467-24.96-10.026667-39.278933-7.569067-4.4544 0.768-9.309867-0.366933-14.216533 0.7168-3.652267 0.802133-20.539733 12.9024-21.128534 14.318934-16.657067-21.290667-54.289067-7.2448-78.353066-11.204267l51.950933-54.5536c0.503467-15.479467-10.9312-25.9328-25.941333-18.295467-1.1776 0.597333-17.544533 14.250667-20.488534 16.8192-19.328 16.810667-34.321067 37.845333-52.258133 55.936-9.275733 45.7728 53.9648 31.3344 82.346667 33.518934 8.209067 0.631467 15.479467 5.538133 24.0896 3.8912-2.5088 1.0752-5.9648 5.8112-12.4928 4.283733l-4.411734 3.072-12.9536 33.6896c-11.1616-0.128-22.417067 0.085333-33.578666 0-21.444267-5.930667-41.975467-17.8432-61.6704-22.280533-3.729067-0.836267-23.517867-4.155733-25.838934-3.976534-3.7888 0.298667-7.406933 3.345067-11.434666 3.8144-23.808 2.756267-43.451733 7.261867-63.4368 22.365867-24.661333 18.6368-33.041067 50.414933-57.847467 69.009067-1.749333 1.314133-14.020267 9.105067-14.839467 9.4208-4.590933 1.792-16.6144 2.551467-22.382933 3.729066l-50.295467-0.0768c-32.469333-10.24-60.885333-8.106667-91.485866 0.0768-6.2208 1.664-12.5696 1.664-19.720534 4.548267-33.937067 13.687467-53.316267 44.2112-51.1744 81.271467-10.914133-27.067733-19.9936-58.043733-22.314666-87.7568-3.729067-47.829333 24.8576-60.270933 39.159466-98.747734 7.620267-20.497067 12.885333-48.733867 1.297067-68.565333-10.385067-17.7664-32.221867-31.581867-53.2736-28.817067l-4.215467-3.242666c-14.199467-57.856-25.8816-121.386667-20.5056-181.290667 1.962667-21.828267 12.407467-48.955733 36.334934-53.205333 17.578667-3.114667 54.621867 6.126933 72.9856 11.357866 31.0528 8.840533 60.245333 23.7056 89.890133 35.985067 60.168533-31.317333 127.197867-53.1968 194.6624-62.933333 12.586667-1.8176 23.0656-1.1264 37.3248-3.720534 4.5312-0.827733 9.7024 0.7168 14.378667-0.546133 5.9904-1.655467 32.1792-44.544 39.560533-53.717333 7.04-8.7552 23.970133-28.356267 31.7184-35.438934 8.789333-8.029867 30.318933-25.847467 40.302933-30.592 6.0672-2.884267 13.073067-4.548267 19.464534-6.673066 37.512533 0.059733 78.976 86.203733 92.151466 116.804266 20.002133 46.455467 25.1136 97.954133 42.026667 140.8 2.2016 5.572267 8.6784 10.862933 9.352533 13.098667 2.013867 6.7072-8.874667 8.7296-12.9024 12.910933-15.4624 16.0512-17.365333 44.654933-8.593066 64.477867 16.2048 36.616533 58.376533 55.517867 86.971733 80.930133 4.5056 4.010667 9.915733 8.192 9.2672 14.993067zM735.035733 213.76c6.186667-7.406933-12.0064-63.086933-16.725333-74.683733-6.442667-15.8208-24.6528-56.1408-41.7792-59.2384-24.635733-10.0352-69.930667 72.763733-64.622933 77.943466 45.2608 10.436267 83.652267 32.9472 123.127466 55.970134z m-492.501333 37.3248c-15.2064-5.495467-26.9824-16.512-42.171733-23.1424-18.798933-8.200533-43.0592-19.2-56.6016 0.8448-11.067733 16.384-4.957867 55.688533-1.186134 75.605333 4.027733 21.282133 13.2608 41.301333 17.877334 62.344534 4.701867-0.3328 6.186667-5.2224 8.1664-8.618667 15.9488-27.4432 31.112533-54.536533 51.456-79.138133 3.242667-3.9168 27.4688-23.927467 22.468266-27.895467z m349.576533 41.770667c-33.186133 5.8112-72.209067 58.555733-36.053333 83.106133 23.867733 16.2048 57.088 1.186133 72.5504-20.514133 22.869333-32.0768 3.089067-69.521067-36.497067-62.592z m-253.568 74.4448c-8.029867 1.2032-29.3632 8.405333-34.4832 14.327466-8.951467 10.359467-10.760533 29.2864-3.677866 41.045334 14.139733 23.4752 42.001067 25.898667 67.131733 22.408533 39.3728-5.469867 43.400533-54.306133 6.690133-70.109867-6.1952-2.670933-30.097067-8.507733-35.6608-7.671466z m23.381334 148.693333c-0.298667 4.753067-5.307733 6.135467-8.618667 8.1664-18.346667 11.2384-38.4 20.821333-53.154133 36.5824-0.930133 17.681067 5.4016 27.178667 24.661333 20.736 9.634133-3.2256 49.834667-30.071467 59.332267-37.666133 16.512-13.2096 38.135467-36.898133 10.2912-51.012267-15.547733-7.8848-72.413867-20.778667-90.24-21.7856-15.189333-0.853333-24.8832 8.490667-20.283734 24.1152 3.968 13.457067 64.2304 15.2832 78.0032 20.864z m-134.3232-0.008533c-5.7088-4.078933-10.871467-6.656-18.4832-7.637334l-0.2816-27.741866c-0.5888-2.2784-1.9968-1.664-3.626667-1.928534-3.473067-0.571733-7.543467 0.341333-11.178667-0.008533 1.604267 19.933867-15.317333 52.189867-5.7088 70.997333 1.032533 2.0224 13.3888 13.7472 15.488 14.3616 34.2016 9.966933 48.256-30.557867 23.7824-48.034133z" fill="#F9C37E" p-id="5908"></path><path d="M626.833067 519.714133c4.676267 1.297067 5.469867 3.140267 14.9248 3.729067-2.218667 13.4656 11.153067 21.358933 14.2592 32.384 2.4832 8.789333 2.218667 17.160533 6.212266 27.3664 16.571733 42.299733 65.851733 67.925333 108.3392 74.487467 7.492267 1.160533 30.7712 4.130133 37.2224 4.130133 3.421867 0 21.9648-3.473067 25.6-4.5568 6.365867-1.8944 10.513067-12.936533 15.351467-18.2272 13.1328-14.378667 28.117333-28.3904 42.999467-40.951467-1.006933 2.7648 0.580267 9.1136-1.6896 15.069867-15.1296 39.714133-63.837867 89.437867-97.1008 115.601067-137.7536 108.373333-411.4688 166.4512-561.621334 59.613866 6.946133-15.786667 27.767467-1.4336 39.2704-0.085333 25.1904 2.944 50.269867-5.316267 73.873067-11.767467 10.999467-3.003733 54.826667-46.839467 57.8304-57.8304 3.515733-12.885333 6.331733-27.067733 8.226133-40.260266 0.5888-4.087467 3.601067-7.799467 3.677867-11.3664 0.119467-5.444267-5.469867-10.180267-6.869333-15.5136-1.1264-4.309333-0.0768-9.326933-1.416534-13.508267-4.437333-13.883733-13.038933-25.659733-14.1568-39.953067 0.8192-0.315733 13.090133-8.1152 14.839467-9.4208 24.8064-18.5856 33.186133-50.372267 57.847467-69.009066 19.985067-15.104 39.637333-19.6096 63.4368-22.365867 4.027733-0.469333 7.6544-3.515733 11.434666-3.8144 2.312533-0.1792 22.109867 3.131733 25.838934 3.976533 19.6864 4.437333 40.226133 16.349867 61.6704 22.280534z m-98.0992-2.926933c-26.018133 3.5072-67.114667 21.649067-62.429867 53.393067 2.210133 14.958933 33.194667 26.368 46.805333 27.793066 27.537067 2.884267 59.357867-19.6864 64.503467-47.240533 4.932267-26.4192-27.665067-36.804267-48.878933-33.9456z m18.670933 85.8112c-25.813333 3.771733-48.5376 19.848533-64.0512 40.405333-9.838933 13.021867-22.6816 43.392-5.768533 53.9392 21.973333 13.704533 51.601067-16.3328 73.565866-23.458133 25.992533-8.430933 53.768533 2.645333 73.924267-15.624533 13.781333-40.200533-47.744-59.630933-77.661867-55.261867z" fill="#F9F0DB" p-id="5909"></path><path d="M391.773867 598.0672c1.117867 14.2848 9.710933 26.069333 14.1568 39.953067 1.339733 4.181333 0.290133 9.198933 1.416533 13.508266 1.399467 5.341867 6.9888 10.069333 6.869333 15.5136-0.0768 3.566933-3.0976 7.278933-3.677866 11.3664-1.8944 13.192533-4.7104 27.3664-8.226134 40.260267-3.003733 10.999467-46.830933 54.826667-57.8304 57.8304-23.6032 6.4512-48.682667 14.711467-73.873066 11.767467-11.502933-1.348267-32.324267-15.6928-39.2704 0.08533-39.389867-28.023467-56.746667-56.4224-74.624-100.744533-2.141867-37.051733 17.237333-67.584 51.1744-81.271467 7.150933-2.884267 13.499733-2.884267 19.720533-4.548267h11.195733l-14.9248 29.8496-7.560533 2.2784c-4.744533 22.946133-7.7312 45.8496-11.093333 68.616534-0.657067 4.462933-3.976533 10.205867-7.133867 13.576533-1.8432 7.3728 23.005867 31.744 29.610667 36.7104 2.193067 1.646933 19.780267 12.279467 20.957866 12.6208 9.796267 2.816 25.1648-1.0752 36.599467 4.386133 12.0832-7.236267 48.546133-4.795733 57.463467-11.895466 1.092267-0.8704 1.024-5.777067 4.206933-8.738134 8.328533-7.7312 20.189867-13.4144 27.963733-24.3712 8.6016-12.1088 8.8064-26.786133 17.032534-38.9888-6.186667-20.881067-3.754667-42.922667-17.032534-61.559466-4.7872-6.724267-13.294933-10.8288-16.6912-18.756267 7.893333-0.725333 10.2912-3.549867 11.195734-3.729067 5.777067-1.186133 17.792-1.937067 22.382933-3.729066z" fill="#FAE3CB" p-id="5910"></path><path d="M111.931733 571.9552c-15.112533-2.082133-33.0496-7.773867-46.1312-15.4368-11.221333-6.5792-19.191467-16.9984-28.4928-25.608533 7.1936-32.1792 23.3216-69.213867 50.295467-89.6256 37.230933-28.168533 81.425067-19.473067 72.1152 34.798933-5.376 31.3088-40.004267 64.6656-47.786667 95.863467z" fill="#F7EFDD" p-id="5911"></path><path d="M951.4496 381.661867c-9.412267 20.974933-29.371733 45.841067-52.232533 52.232533-22.442667-22.442667-63.214933-38.570667-80.128-67.2512-27.537067-46.677333 14.139733-69.794133 57.8816-54.144 35.498667 12.6976 55.876267 40.0384 74.487466 69.162667z" fill="#F6EEDB" p-id="5912"></path><path d="M839.517867 437.632c21.623467 2.3296 36.9152 11.5712 52.232533 26.120533 16.273067 15.453867 12.1088 19.4048 14.993067 39.1168 6.5536 44.842667-0.512 55.466667-14.993067 95.2064-14.882133 12.561067-29.866667 26.5728-42.999467 40.951467-4.8384 5.2992-8.9856 16.3328-15.351466 18.2272-3.643733 1.083733-22.178133 4.5568-25.6 4.5568-6.459733 0-29.730133-2.978133-37.2224-4.130133-42.487467-6.562133-91.767467-32.187733-108.3392-74.487467-4.002133-10.205867-3.7376-18.577067-6.212267-27.3664-3.106133-11.016533-16.477867-18.909867-14.2592-32.384 7.389867 0.4608 14.993067-0.3328 22.391467 0-0.520533 3.217067-3.2768 4.514133-2.978134 8.576 0.9472 12.996267 12.475733 51.310933 19.8144 62.250667 1.8944 2.824533 22.126933 26.2912 24.1664 28.066133 1.365333 1.186133 30.583467 15.7696 32.349867 16.162133 10.624 2.3552 42.538667 8.814933 51.464533 8.209067 3.754667-0.256 7.432533-3.413333 11.434667-3.822933 7.108267-0.7168 15.266133 1.288533 21.7856-0.5888 9.591467-2.756267 58.376533-47.2576 65.911467-57.216 14.071467-18.619733 2.176-20.7104-0.017067-37.4528-2.193067-16.708267-3.626667-22.690133-6.946133-37.828267-1.365333-6.2208 0.213333-12.270933-0.571734-18.082133-0.708267-5.230933-8.661333-19.012267-12.194133-23.441067-0.836267-1.041067-4.1728-0.401067-5.521067-1.749333-1.348267-1.348267-0.708267-4.693333-1.749333-5.521067-11.6736-9.275733-29.2096-13.184-40.2432-23.381333 5.819733-0.247467 13.047467-0.605867 18.653867 0z" fill="#F5EAD6" p-id="5913"></path><path d="M735.035733 213.76c-39.4752-23.022933-77.866667-45.533867-123.127466-55.970133-5.307733-5.179733 39.9872-87.978667 64.622933-77.943467 17.1264 3.0976 35.336533 43.409067 41.7792 59.2384 4.718933 11.588267 22.903467 67.2768 16.725333 74.683733z" fill="#F8C8B6" p-id="5914"></path><path d="M242.5344 251.0848c5.000533 3.968-19.2256 23.978667-22.468267 27.895467-20.343467 24.6016-35.5072 51.694933-51.456 79.138133-1.9712 3.396267-3.464533 8.285867-8.1664 8.618667-4.625067-21.051733-13.858133-41.070933-17.877333-62.344534-3.771733-19.9168-9.8816-59.221333 1.186133-75.605333 13.550933-20.0448 37.802667-9.045333 56.6016-0.8448 15.189333 6.6304 26.965333 17.646933 42.171734 23.1424z" fill="#F8C9B7" p-id="5915"></path><path d="M817.1264 437.632c1.2288-0.1024 2.491733 0.0512 3.729067 0 11.025067 10.197333 28.561067 14.114133 40.2432 23.381333 1.041067 0.827733 0.401067 4.1728 1.749333 5.521067 1.348267 1.348267 4.693333 0.708267 5.521067 1.749333 3.5328 4.4288 11.4944 18.210133 12.194133 23.441067 0.785067 5.8112-0.7936 11.869867 0.571733 18.082133 3.319467 15.138133 4.753067 21.12 6.946134 37.828267 2.193067 16.750933 14.097067 18.833067 0.017066 37.4528-7.534933 9.966933-56.32 54.459733-65.911466 57.216-6.528 1.877333-14.677333-0.128-21.7856 0.5888-4.002133 0.401067-7.68 3.566933-11.434667 3.822933-8.925867 0.605867-40.832-5.8624-51.464533-8.209066-1.7664-0.392533-30.984533-14.967467-32.349867-16.162134-2.039467-1.783467-22.272-25.2416-24.1664-28.066133-7.3472-10.939733-18.875733-49.262933-19.8144-62.250667-0.298667-4.061867 2.4576-5.358933 2.978133-8.576-7.406933-0.341333-15.010133 0.452267-22.391466 0-9.454933-0.5888-10.248533-2.440533-14.9248-3.729066 11.1616 0.085333 22.4256-0.128 33.578666 0 1.245867 0.017067 2.491733-0.0256 3.729067 0 4.957867 0.110933 9.975467-0.085333 14.933333 0-1.408 17.8688 1.988267 38.912 10.376534 54.912 3.456 6.596267 24.8064 32.469333 30.7456 36.411733 5.896533 3.9168 11.2384 5.239467 18.030933 6.4512l1.0752 5.956267c6.613333 5.5296 46.651733 5.435733 57.216 4.4032 30.754133-3.0208 57.7792-27.246933 74.606933-52.241067 8.4992-12.629333 2.193067-11.835733 2.030934-20.4544-0.085333-4.3264 4.241067-8.558933 3.8144-14.737067-0.256-3.771733-3.456-7.458133-3.822934-11.434666-0.6656-7.227733 0.878933-14.506667-0.6656-21.7088-1.160533-5.4272-13.781333-26.308267-17.902933-30.600534-8.32-8.6784-28.040533-18.696533-38.4768-24.951466-4.744533-2.8416-10.794667-5.768533-13.909333-10.350934 3.490133-0.725333 6.075733-3.029333 14.9248-3.729066z" fill="#F9E2C9" p-id="5916"></path><path d="M369.3824 601.8048c-0.904533 0.187733-3.293867 3.003733-11.195733 3.729067-8.4992 0.785067-17.544533-0.5632-26.112 0.008533l28.040533 26.043733c2.645333 20.292267 19.1744 31.197867 12.458667 53.623467-0.913067 3.037867-5.085867 5.102933-6.2208 8.704-2.005333 6.331733-1.988267 14.6432-5.128534 20.992-3.976533 8.046933-23.432533 24.635733-31.735466 27.963733-12.6976 5.085867-63.675733 9.0112-76.936534 3.729067-3.677867-1.467733-9.710933-6.152533-13.602133-8.772267-1.211733-0.810667-15.104-11.0592-7.620267-12.9024 5.1712 1.578667 19.1232-8.0128 26.120534-7.458133 9.608533 0.853333 16.8192 10.641067 25.941333 13.2352 25.1904 7.168 57.361067-10.589867 65.655467-35.438933 2.6112-7.825067 1.408-16.733867 5.521066-24.593067 0.418133-4.7872-8.686933-27.665067-11.776-32.9472-15.377067-26.248533-57.4464-32.9472-81.5104-15.300267-18.670933 13.696-15.240533 29.550933-15.0272 50.269867-12.356267-2.6624-16.6144-24.064-15.3344-35.114667-0.64-2.244267-2.944-1.809067-3.319466-2.2016-0.913067-0.964267-3.618133-1.220267-3.729067-3.729066l14.9248-29.841067h-11.195733c30.600533-8.192 59.025067-10.325333 91.485866-0.085333l50.295467 0.0768z" fill="#F8C3A6" p-id="5917"></path><path d="M690.269867 478.6688c-8.610133 1.6384-15.880533-3.259733-24.0896-3.8912-28.373333-2.184533-91.6224 12.253867-82.346667-33.518933 17.9456-18.0992 32.938667-39.133867 52.258133-55.936 2.952533-2.568533 19.310933-16.213333 20.488534-16.8192 15.0016-7.637333 26.4448 2.816 25.941333 18.295466l-51.950933 54.5536c24.064 3.950933 61.696-10.0864 78.353066 11.204267-1.595733 3.8144 2.2784 12.9024-1.681066 18.850133-3.473067 5.230933-12.433067 5.316267-16.981334 7.2704z" fill="#502F26" p-id="5918"></path><path d="M802.2016 441.361067c3.106133 4.5824 9.1648 7.509333 13.909333 10.350933 10.427733 6.2464 30.1568 16.273067 38.4768 24.951467 4.1216 4.3008 16.7424 25.173333 17.902934 30.600533 1.536 7.202133 0 14.481067 0.6656 21.7088 0.366933 3.976533 3.566933 7.662933 3.822933 11.434667 0.426667 6.178133-3.899733 10.410667-3.8144 14.737066 0.170667 8.610133 6.4768 7.825067-2.030933 20.4544-16.827733 24.994133-43.8528 49.220267-74.606934 52.241067-10.564267 1.032533-50.6112 1.1264-57.216-4.4032l-1.0752-5.956267c-6.792533-1.2032-12.125867-2.525867-18.030933-6.4512-5.9392-3.9424-27.2896-29.824-30.7456-36.411733-8.388267-16.008533-11.793067-37.0432-10.376533-54.912-4.957867-0.0768-9.975467 0.110933-14.933334 0l2.338134-3.140267c6.144-1.117867 14.472533-1.9712 20.0448-4.317866 12.074667-2.039467 6.382933 6.126933 7.338666 13.1584 3.5584 26.112 12.3392 50.56 31.684267 69.077333 17.800533 17.032533 51.3792 17.117867 74.922667 14.9248 15.095467-1.408 40.7296-20.9152 48.324266-33.757867 1.774933-2.9952 11.656533-28.6208 12.4928-32.264533 2.747733-12.049067-4.053333-30.2592-9.787733-41.2672-7.108267-13.636267-30.267733-34.747733-44.279467-41.540267-9.685333-4.693333-20.8896-3.2768-27.4176-11.758933 0.401067-0.196267 1.117867-2.7136 3.729067-3.729067 8.5248-3.328 11.818667-2.304 18.653867-3.729066z" fill="#F9D4B8" p-id="5919"></path><path d="M361.924267 515.9936c-13.7728-5.589333-74.0352-7.406933-78.0032-20.864-4.599467-15.624533 5.0944-24.977067 20.283733-24.1152 17.826133 1.006933 74.692267 13.9008 90.24 21.7856 27.835733 14.114133 6.212267 37.802667-10.2912 51.012267-9.4976 7.6032-49.698133 34.449067-59.332267 37.666133-19.259733 6.442667-25.591467-3.054933-24.661333-20.736 14.754133-15.761067 34.807467-25.344 53.154133-36.5824 3.310933-2.030933 8.32-3.4048 8.618667-8.1664z" fill="#543026" p-id="5920"></path><path d="M592.110933 292.855467c39.586133-6.929067 59.3664 30.5152 36.497067 62.592-15.470933 21.691733-48.682667 36.718933-72.5504 20.514133-36.1472-24.541867 2.875733-77.294933 36.053333-83.106133z" fill="#F8EDD7" p-id="5921"></path><path d="M338.542933 367.300267c5.563733-0.827733 29.4656 5.000533 35.6608 7.671466 36.7104 15.812267 32.674133 64.648533-6.690133 70.109867-25.130667 3.490133-52.992 1.066667-67.131733-22.408533-7.082667-11.758933-5.2736-30.685867 3.677866-41.045334 5.12-5.930667 26.453333-13.1328 34.4832-14.327466z" fill="#F8EEDB" p-id="5922"></path><path d="M783.547733 445.090133c-2.6112 1.015467-3.328 3.541333-3.729066 3.729067-10.1888 4.8896-10.888533 6.1696-18.653867 11.195733-20.5056 13.2608-37.239467 28.433067-55.970133 41.045334-3.3792 2.269867-16.034133 10.0864-18.653867 11.195733-5.572267 2.3552-13.9008 3.2-20.0448 4.317867l-2.338133 3.140266c-1.245867-0.0256-2.491733 0.017067-3.729067 0l12.9536-33.6896 4.411733-3.072c6.519467 1.527467 9.984-3.208533 12.4928-4.283733 4.548267-1.954133 13.508267-2.039467 16.981334-7.2704 3.950933-5.947733 0.08533-15.0272 1.681066-18.850133 0.5888-1.408 17.476267-13.508267 21.128534-14.318934 4.898133-1.0752 9.762133 0.0512 14.216533-0.7168 14.318933-2.4576 29.226667-9.5744 39.278933 7.569067z" fill="#F6AE76" p-id="5923"></path><path d="M205.2096 478.6688c4.6336 18.056533-9.6256 48.290133-1.962667 63.522133 3.165867 6.2976 14.088533 11.3152 18.8416 3.729067 7.330133-11.690667-9.344-24.174933 5.504-29.943467 24.465067 17.476267 10.410667 58.001067-23.7824 48.034134-2.0992-0.6144-14.455467-12.3392-15.488-14.3616-9.617067-18.807467 7.304533-51.063467 5.7088-70.997334 3.6352 0.349867 7.697067-0.554667 11.178667 0.008534z" fill="#30B3E5" p-id="5924"></path><path d="M205.2096 478.6688c1.621333 0.264533 3.029333-0.349867 3.626667 1.928533l0.2816 27.741867c7.611733 0.989867 12.7744 3.566933 18.4832 7.637333-14.856533 5.768533 1.8176 18.2528-5.504 29.943467-4.753067 7.586133-15.675733 2.568533-18.8416-3.729067-7.662933-15.232 6.587733-45.4656 1.962666-63.522133z" fill="#D9D3C1" p-id="5925"></path><path d="M839.517867 437.632c-5.6064-0.605867-12.834133-0.247467-18.653867 0-1.237333 0.0512-2.500267-0.1024-3.729067 0l2.193067-3.328a63.015253 63.015253 0 0 1 18.005333 0l2.193067 3.328z" fill="#F9D4B8" p-id="5926"></path><path d="M547.4048 602.5984c29.917867-4.3776 91.4432 15.061333 77.661867 55.261867-20.155733 18.269867-47.931733 7.1936-73.924267 15.624533-21.9648 7.125333-51.592533 37.162667-73.565867 23.458133-16.904533-10.5472-4.061867-40.9088 5.768534-53.9392 15.522133-20.5568 38.2464-36.6336 64.0512-40.405333z m57.0368 43.972267c0.418133-12.433067-18.8672-20.002133-28.6976-21.666134-42.496-7.176533-69.0432 13.149867-86.9376 49.655467 5.6576 6.766933 3.968 4.8896 9.821867 2.389333 8.448-3.6096 14.1824-9.352533 21.060266-12.535466 17.9456-8.2944 41.002667-15.5904 60.578134-17.774934 7.927467-0.887467 16.221867 0.401067 24.174933-0.085333z" fill="#502D24" p-id="5927"></path><path d="M528.733867 516.7872c21.2224-2.858667 53.8112 7.517867 48.878933 33.9456-5.1456 27.554133-36.974933 50.1248-64.503467 47.240533-13.610667-1.425067-44.603733-12.8256-46.805333-27.793066-4.676267-31.744 36.411733-49.885867 62.429867-53.393067z" fill="#502F27" p-id="5928"></path><path d="M358.1952 605.533867c3.396267 7.927467 11.904 12.032 16.6912 18.756266 13.277867 18.6368 10.845867 40.669867 17.032533 61.559467-8.226133 12.202667-8.430933 26.88-17.032533 38.9888-7.7824 10.9568-19.643733 16.64-27.963733 24.3712-3.182933 2.952533-3.114667 7.867733-4.206934 8.738133-8.917333 7.099733-45.380267 4.6592-57.463466 11.895467-11.426133-5.461333-26.8032-1.570133-36.599467-4.386133-1.1776-0.341333-18.773333-10.973867-20.957867-12.6208-6.6048-4.9664-31.453867-29.3376-29.610666-36.7104 3.157333-3.362133 6.4768-9.1136 7.133866-13.576534 5.316267 3.754667 7.3216 11.1104 12.893867 15.0784 1.8176 1.297067 12.16 6.9888 13.226667 7.313067-7.483733 1.8432 6.417067 12.0832 7.620266 12.9024 3.8912 2.619733 9.924267 7.304533 13.602134 8.772267 13.2608 5.282133 64.238933 1.348267 76.936533-3.729067 8.302933-3.328 27.758933-19.9168 31.735467-27.963733 3.140267-6.3488 3.1232-14.660267 5.128533-20.992 1.143467-3.601067 5.316267-5.666133 6.2208-8.704 6.715733-22.4256-9.821867-33.3312-12.458667-53.623467l-28.040533-26.043733c8.567467-0.571733 17.6128 0.776533 26.112-0.008534z" fill="#F9D5BA" p-id="5929"></path><path d="M223.872 631.645867c0.110933 2.5088 2.816 2.773333 3.729067 3.729066 3.720533 23.6032-10.88 44.893867-2.039467 67.336534l20.548267 3.413333c4.744533-11.426133 0.273067-20.599467 0.145066-33.4336 3.208533 0.6912 7.6544-0.469333 11.195734 0-0.853333 7.415467 7.406933 13.9008 7.458133 22.382933 0.0512 8.4224-7.466667 14.037333-7.458133 22.382934-6.997333-0.546133-20.949333 9.0368-26.120534 7.458133-1.066667-0.324267-11.409067-6.016-13.226666-7.313067-5.572267-3.968-7.5776-11.323733-12.893867-15.0784 3.362133-22.7584 6.3488-45.6704 11.093333-68.616533l7.560534-2.2784z" fill="#30B8E8" p-id="5930"></path><path d="M257.450667 717.4656c0-8.3456 7.517867-13.969067 7.458133-22.382933 14.498133 13.738667 21.751467 17.9712 42.9056 14.916266 15.3344-2.210133 13.755733-11.229867 20.6592-16.8192 2.0736-1.681067 5.879467-1.245867 6.9376-2.210133 1.2288-1.1264 0.810667-25.9584-0.2304-30.72-1.8432-8.465067-19.6096-29.329067-27.8784-31.829333-8.7296-2.6368-30.336 3.9168-36.7616 10.7264-9.565867 10.120533-8.2176 21.6576-13.098667 33.544533-3.5328-0.469333-7.9872 0.6912-11.195733 0-0.213333-20.718933-3.643733-36.573867 15.0272-50.269867 24.064-17.646933 66.133333-10.9568 81.5104 15.300267 3.089067 5.2736 12.194133 28.151467 11.776 32.9472-4.113067 7.8592-2.909867 16.776533-5.521067 24.593067-8.302933 24.849067-40.465067 42.606933-65.655466 35.438933-9.122133-2.594133-16.3328-12.3904-25.941334-13.2352z" fill="#F8AF90" p-id="5931"></path><path d="M246.254933 672.6912c0.128 12.834133 4.599467 22.007467-0.145066 33.4336l-20.548267-3.413333c-8.840533-22.442667 5.76-43.733333 2.039467-67.336534 0.375467 0.392533 2.679467-0.042667 3.319466 2.2016-1.28 11.050667 2.978133 32.443733 15.3344 35.114667z" fill="#DBD1CF" p-id="5932"></path><path d="M779.818667 448.8192c6.528 8.482133 17.732267 7.0656 27.4176 11.758933 14.011733 6.792533 37.1712 27.904 44.279466 41.540267 5.742933 11.016533 12.544 29.218133 9.787734 41.2672-0.827733 3.643733-10.717867 29.269333-12.4928 32.264533-7.594667 12.842667-33.2288 32.3584-48.324267 33.757867-23.543467 2.193067-57.122133 2.107733-74.922667-14.9248-19.3536-18.517333-28.1344-42.965333-31.684266-69.077333-0.955733-7.031467 4.736-15.197867-7.338667-13.1584 2.619733-1.109333 15.2832-8.917333 18.653867-11.195734 11.630933 3.874133 5.0432 8.337067 4.573866 13.832534-0.768 8.977067-2.6368 24.234667-0.315733 32.273066 0.512 1.7664 17.6128 30.165333 18.909867 31.4624 0.9472 0.9472 19.3536 12.5184 21.76 13.687467 31.104 15.0784 60.330667 0.938667 83.8144-20.343467 12.928-24.593067 14.6176-62.327467-7.338667-82.261333-7.04-6.391467-20.027733-8.9088-26.760533-18.013867l-38.6816-11.690666c7.765333-5.0176 8.4736-6.2976 18.653866-11.195734z" fill="#F8C4A5" p-id="5933"></path><path d="M761.156267 460.014933l38.6816 11.690667c6.7328 9.105067 19.720533 11.630933 26.760533 18.013867 21.9648 19.933867 20.266667 57.668267 7.338667 82.261333-23.483733 21.2736-52.718933 35.421867-83.8144 20.343467-2.4064-1.169067-20.8128-12.731733-21.76-13.687467-1.297067-1.297067-18.397867-29.696-18.909867-31.4624-2.3296-8.046933-0.452267-23.304533 0.315733-32.273067 0.469333-5.495467 7.057067-9.966933-4.573866-13.832533 18.730667-12.612267 35.464533-27.776 55.970133-41.045333z m47.726933 114.8928c1.544533-1.570133 1.979733-5.76 4.334933-8.610133 7.7056-9.326933 13.166933-12.782933 14.549334-26.9312 0.546133-5.614933-2.2784-8.413867-2.312534-11.016533-0.042667-3.84 2.602667-6.920533 2.2528-9.915734-1.595733-13.6448-29.218133-30.037333-38.997333-39.406933-16.3328 3.2768-34.875733-0.930133-49.8432 9.079467-18.7136 12.509867-16.913067 31.1552-15.172267 52.292266 0.9984 12.142933 5.179733 10.9312 11.511467 18.449067 2.3808 2.824533 2.696533 6.784 4.369067 8.593067 1.399467 1.518933 5.768533 1.1776 8.533333 4.5568 1.698133 2.082133 1.2288 5.9648 2.235733 7.031466 1.450667 1.527467 8.6784-0.2304 12.509867 0.4864 10.6752 1.9712 21.3504 6.587733 33.186133 3.106134 0.7168-0.213333 12.305067-7.168 12.8256-7.7056z" fill="#F7B595" p-id="5934"></path><path d="M604.4416 646.570667c-7.953067 0.477867-16.238933-0.802133-24.174933 0.085333-19.584 2.184533-42.632533 9.480533-60.578134 17.774933-6.8864 3.182933-12.612267 8.925867-21.060266 12.535467-5.853867 2.500267-4.164267 4.3776-9.821867-2.389333 17.8944-36.514133 44.433067-56.832 86.9376-49.655467 9.8304 1.655467 29.115733 9.233067 28.6976 21.666133z" fill="#F49275" p-id="5935"></path><path d="M257.450667 672.6912c4.881067-11.886933 3.524267-23.424 13.098666-33.544533 6.434133-6.801067 28.032-13.354667 36.7616-10.7264 8.2688 2.491733 26.0352 23.364267 27.8784 31.829333 1.041067 4.770133 1.4592 29.602133 0.2304 30.72-1.058133 0.964267-4.864 0.529067-6.9376 2.210133-6.903467 5.589333-5.3248 14.600533-20.6592 16.8192-21.154133 3.054933-28.398933-1.1776-42.9056-14.916266-0.0512-8.482133-8.32-14.967467-7.458133-22.382934z" fill="#F89C7D" p-id="5936"></path><path d="M808.8832 574.907733c-0.529067 0.529067-12.1088 7.492267-12.8256 7.7056-11.844267 3.4816-22.519467-1.134933-33.186133-3.106133-3.831467-0.708267-11.0592 1.041067-12.509867-0.4864-1.006933-1.058133-0.5376-4.949333-2.235733-7.031467-2.7648-3.387733-7.125333-3.037867-8.533334-4.5568-1.672533-1.809067-1.988267-5.768533-4.369066-8.593066-6.340267-7.517867-10.513067-6.306133-11.511467-18.449067-1.7408-21.128533-3.541333-39.7824 15.172267-52.292267 14.967467-10.0096 33.5104-5.802667 49.8432-9.079466 9.7792 9.3696 37.410133 25.770667 38.997333 39.406933 0.349867 2.9952-2.295467 6.075733-2.2528 9.915733 0.034133 2.6112 2.858667 5.4016 2.312533 11.016534-1.3824 14.148267-6.843733 17.604267-14.549333 26.9312-2.3552 2.858667-2.7904 7.04-4.334933 8.610133z m-14.830933-69.4272c-2.722133-2.602667-18.679467-8.149333-23.5008-8.3712-18.167467-0.827733-34.3808 13.405867-34.158934 31.940267 0.187733 15.607467 26.333867 37.000533 41.480534 35.447467 20.5824-2.116267 33.083733-21.4016 26.385066-41.250134-0.580267-1.7152-9.463467-17.058133-10.205866-17.7664z" fill="#F8A383" p-id="5937"></path><path d="M794.052267 505.480533c0.7424 0.708267 9.6256 16.0512 10.205866 17.7664 6.698667 19.857067-5.802667 39.1424-26.385066 41.250134-15.1552 1.553067-41.301333-19.831467-41.480534-35.447467-0.221867-18.542933 16-32.768 34.158934-31.940267 4.821333 0.221867 20.770133 5.768533 23.5008 8.3712z" fill="#F79273" p-id="5938"></path></svg>